<svg xmlns="http://www.w3.org/2000/svg" viewBox="0 0 106.51 97.73"><defs><style>.cls-1{fill:#f43501;}</style></defs><title>자산 2</title><g id="레이어_2" data-name="레이어 2"><g id="Layer_5_이미지" data-name="Layer 5 이미지"><path class="cls-1" d="M104.73,26.21a13.84,13.84,0,0,0,1,6.63,10.77,10.77,0,0,1,0,8.14c-1,2.28-1,4.81-1.52,7.16-1,5-3.73,9.32-5.1,14.15A12.27,12.27,0,0,1,93.7,70a2.67,2.67,0,0,0-1.09,1C89,78.61,82.48,83.82,77.14,90c-1.94,2.25-4.71,3.9-6.94,6a3.53,3.53,0,0,1-1.58.94c-4.78,1-9.68,1.52-14-1.29a94,94,0,0,0-17.45-9,32.08,32.08,0,0,1-4.37-2.23c-3.35-1.93-6.22-4.73-10.13-5.65a1.56,1.56,0,0,1-.81-.43c-3-3.61-7.78-5.46-9.59-10.14a5.06,5.06,0,0,0-1.55-1.88A28.81,28.81,0,0,1,1.67,49.94c-1-5.36-2.93-11-.51-16.65C2.36,30.5,2.69,27,4.27,24.76c3.11-4.42,5.9-9.92,12.59-10.16a5.92,5.92,0,0,0,2.52-1.09,17.25,17.25,0,0,1,13.42-1.4c2.9.89,6,.64,8.91,2.08a32.77,32.77,0,0,1,7.72,4.88c1.09,1,1.69,1,2.69-.16C54.27,16.43,56,13.67,58,11.1,64.52,2.87,72.39-1.41,83.21.42c5.05.85,9.37,3.27,13.51,5.71,3.89,2.29,6,6.71,7.11,11.2A29.4,29.4,0,0,1,104.73,26.21Z"/></g></g></svg>